<svg height='100px' width='100px'  fill="#1A1A1A" xmlns="http://www.w3.org/2000/svg" xmlns:xlink="http://www.w3.org/1999/xlink" version="1.1" x="0px" y="0px" viewBox="0 0 100 100" enable-background="new 0 0 100 100" xml:space="preserve"><path d="M90.513,26.463c-3.744-5.347-11.188-6.756-16.536-3.012L46.479,42.705l-9.999-7.002c3.723-6.428,1.972-14.746-4.227-19.086  c-6.546-4.582-15.565-2.992-20.149,3.553c-4.582,6.545-2.993,15.566,3.553,20.15c4.492,3.145,10.15,3.381,14.738,1.105L42.642,50  l-12.246,8.574c-4.588-2.275-10.246-2.039-14.738,1.105c-6.546,4.584-8.135,13.604-3.553,20.149  c4.584,6.546,13.604,8.136,20.149,3.554c6.198-4.34,7.949-12.658,4.227-19.086l9.999-7.002l27.497,19.253  c5.348,3.745,12.792,2.335,16.536-3.012L56.898,50L90.513,26.463z M23.987,36c-4.142,0-7.5-3.358-7.5-7.5s3.358-7.5,7.5-7.5  c4.143,0,7.5,3.358,7.5,7.5S28.13,36,23.987,36z M23.987,79c-4.142,0-7.5-3.358-7.5-7.5s3.358-7.5,7.5-7.5  c4.143,0,7.5,3.358,7.5,7.5S28.13,79,23.987,79z"></path></svg>