<svg height='100px' width='100px'  fill="#1A1A1A" xmlns="http://www.w3.org/2000/svg" xmlns:xlink="http://www.w3.org/1999/xlink" version="1.1" x="0px" y="0px" viewBox="0 0 100 100" style="enable-background:new 0 0 100 100;" xml:space="preserve"><style type="text/css">
	.st0{fill-rule:evenodd;clip-rule:evenodd;}
</style><path class="st0" d="M75.3,79.6c0,0,5.5-2.1,8.4-8.5c-4.7,0-8.4-3.8-8.4-8.4c0-4.7,3.8-8.5,8.4-8.5s8.4,3.8,8.4,8.5l0,0  C92.2,72,84.7,79.6,75.3,79.6z M54.2,79.6c0,0,5.5-2.1,8.4-8.5c-4.7,0-8.4-3.8-8.4-8.4c0-4.7,3.8-8.5,8.5-8.5s8.4,3.8,8.4,8.5  C71.1,72,63.6,79.6,54.2,79.6z M45.8,37.3c0,4.7-3.8,8.5-8.5,8.5s-8.4-3.8-8.4-8.5c0-9.3,7.6-16.9,16.9-16.9c0,0-5.5,2.1-8.4,8.5  C42,28.9,45.8,32.7,45.8,37.3z M24.7,37.3c0,4.7-3.8,8.5-8.4,8.5S7.8,42,7.8,37.3l0,0c0-9.3,7.6-16.9,16.9-16.9c0,0-5.5,2.1-8.4,8.5  C20.9,28.9,24.7,32.7,24.7,37.3z"></path></svg>