<svg height='100px' width='100px'  fill="#1A1A1A" xmlns="http://www.w3.org/2000/svg" xmlns:xlink="http://www.w3.org/1999/xlink" version="1.1" x="0px" y="0px" viewBox="0 0 8 8" enable-background="new 0 0 8 8" xml:space="preserve"><path d="M6.638,0H3.672C3.399,0,3.108,0.224,3.023,0.5C2.938,0.776,3.091,1,3.361,1h0.311c0.276,0,0.5,0.224,0.5,0.5  c0,0.047-0.007,0.094-0.019,0.137L2.739,6.549C2.622,6.812,2.368,7,2.062,7H1.671C1.399,7,1.108,7.224,1.023,7.5  C0.938,7.774,1.089,8,1.362,8h2.966c0.272,0,0.563-0.226,0.648-0.5C5.062,7.224,4.909,7,4.638,7h-0.31c-0.276,0-0.5-0.226-0.5-0.502  c0-0.048,0.007-0.093,0.02-0.137c0.004-0.016-0.004-0.016-0.009-0.02l1.387-4.817C5.321,1.221,5.602,1,5.938,1h0.392  c0.273,0,0.562-0.224,0.647-0.5C7.062,0.224,6.911,0,6.638,0z"></path></svg>