<svg height='100px' width='100px'  fill="#1A1A1A" xmlns="http://www.w3.org/2000/svg" xmlns:xlink="http://www.w3.org/1999/xlink" version="1.1" x="0px" y="0px" viewBox="0 0 8 8" enable-background="new 0 0 8 8" xml:space="preserve"><path fill-rule="evenodd" clip-rule="evenodd" d="M8,5.498C8,6.879,6.881,8,5.5,8H2H0.5C0.224,8,0.001,7.775,0.001,7.5  S0.224,7,0.5,7C0.775,7,1,6.775,1,6.498V1.5C1,1.223,0.775,1,0.5,1C0.224,1,0.001,0.776,0.001,0.5S0.224,0,0.5,0H2h3  c1.104,0,2,0.896,2,2c0,0.472-0.171,0.9-0.443,1.242C7.407,3.643,8,4.499,8,5.498L8,5.498z M4,1H3.25C3.111,1,3,1.111,3,1.25v1.5  C3,2.887,3.111,3,3.25,3H4c0.553,0,1-0.447,1-1S4.553,1,4,1L4,1z M4.5,4H3.25C3.111,4,3,4.111,3,4.25v2.5C3,6.887,3.111,7,3.25,7  H4.5C5.328,7,6,6.328,6,5.498C6,4.671,5.328,4,4.5,4L4.5,4z"></path></svg>