<svg height='100px' width='100px'  fill="#1A1A1A" xmlns="http://www.w3.org/2000/svg" xmlns:xlink="http://www.w3.org/1999/xlink" version="1.1" x="0px" y="0px" viewBox="0 0 100 100" enable-background="new 0 0 100 100" xml:space="preserve"><g><g><path d="M90.1,10c0,3.31-2.68,6-6,6h-3.2v30.51c0,17.04-13.86,30.9-30.9,30.9s-30.9-13.86-30.9-30.9V16h-3.2c-3.32,0-6-2.69-6-6    s2.68-6,6-6h18.41c3.31,0,6,2.69,6,6s-2.69,6-6,6H31.1v30.51c0,10.42,8.48,18.9,18.9,18.9s18.9-8.48,18.9-18.9V16h-3.21    c-3.31,0-6-2.69-6-6s2.69-6,6-6H84.1C87.42,4,90.1,6.69,90.1,10z"></path></g></g><g><path d="M84.04,96H15.96c-3.313,0-6-2.687-6-6s2.687-6,6-6h68.08c3.313,0,6,2.687,6,6S87.354,96,84.04,96z"></path></g></svg>