<svg height='100px' width='100px'  fill="#1A1A1A" xmlns="http://www.w3.org/2000/svg" data-name="Layer 1" viewBox="0 0 32 32" x="0px" y="0px"><title>Paste, copy, interface, ui, Clipboard_2</title><path d="M19.5,6.5H8.5V5A1.5,1.5,0,0,1,10,3.5h2a.5.5,0,0,0,.5-.5,1.5,1.5,0,0,1,3,0,.5.5,0,0,0,.5.5h2A1.5,1.5,0,0,1,19.5,5Z"></path><path d="M23.5,7v7.5H18A2.5,2.5,0,0,0,15.5,17V28.5H6A1.5,1.5,0,0,1,4.5,27V7A1.5,1.5,0,0,1,6,5.5H7.5V7a.5.5,0,0,0,.5.5H20a.5.5,0,0,0,.5-.5V5.5H22A1.5,1.5,0,0,1,23.5,7Z"></path><path d="M26,15.5H18A1.5,1.5,0,0,0,16.5,17V29A1.5,1.5,0,0,0,18,30.5h8A1.5,1.5,0,0,0,27.5,29V17A1.5,1.5,0,0,0,26,15.5Zm-4,12H19a.5.5,0,0,1,0-1h3a.5.5,0,0,1,0,1Zm2-4H19a.5.5,0,0,1,0-1h5a.5.5,0,0,1,0,1Zm0-4H19a.5.5,0,0,1,0-1h5a.5.5,0,0,1,0,1Z"></path></svg>