<svg height='100px' width='100px'  fill="#1A1A1A" xmlns="http://www.w3.org/2000/svg" xmlns:xlink="http://www.w3.org/1999/xlink" version="1.1" x="0px" y="0px" viewBox="0 0 1024 1024" style="enable-background:new 0 0 1024 1024;" xml:space="preserve"><g><path d="M956.2,392.8L715.5,633.5l-59.6-59.6L794.8,435H323.9c-48.5,0-92.6,19.8-124.5,51.8   c-32,32-51.8,76.2-51.8,124.7c0,97,79.3,176.5,176.3,176.5H562v84H328.4C185.1,872,67.8,754.7,67.8,611.3   c0-71.7,29.3-136.7,76.6-183.9c47.2-47.2,112.4-76.4,184-76.4h466.5L655.9,211.9l59.6-59.7L956.2,392.8z"></path><g><path d="M949.1,385.8c-27.3,27.3-54.5,54.5-81.8,81.8c-43.1,43.1-86.2,86.2-129.3,129.3    c-9.9,9.9-19.7,19.7-29.6,29.6c4.7,0,9.4,0,14.1,0c-19.9-19.9-39.7-39.7-59.6-59.6c0,4.7,0,9.4,0,14.1    c15.6-15.6,31.3-31.2,46.9-46.9c24.9-24.9,49.9-49.9,74.8-74.8c5.8-5.8,11.5-11.5,17.3-17.3c6.1-6.1,1.6-17.1-7.1-17.1    c-16.6,0-33.1,0-49.7,0c-39.4,0-78.8,0-118.2,0c-46.8,0-93.6,0-140.4,0c-38.8,0-77.6,0-116.4,0c-18.1,0-36.3-0.6-54.4,0.2    c-77.7,3.6-146.6,57-169.8,131.2c-20.7,66.2-1.3,140.2,48.3,188.4c23.1,22.5,52.1,39,83.4,47c17.7,4.6,35.8,5.9,54,5.9    c37.9,0,75.7,0,113.6,0c37,0,73.9,0,110.9,0c2.1,0,4.3,0,6.4,0c-3.3-3.3-6.7-6.7-10-10c0,28.1,0,56.2,0,84.3    c3.3-3.3,6.7-6.7,10-10c-32.7,0-65.4,0-98.2,0c-42.6,0-85.3,0-127.9,0c-20.5,0-40.7-1.2-60.8-5.6c-33.8-7.4-65.6-21.7-93.6-41.9    c-55.2-39.7-92.9-102.3-102-169.7c-10.8-80.2,19.1-161.8,78.2-216.8c47.3-44.1,109.4-67.2,173.8-67.2c27.6,0,55.2,0,82.9,0    c48.6,0,97.2,0,145.8,0c48.7,0,97.5,0,146.2,0c28,0,56,0,84.1,0c1.3,0,2.6,0,4,0c8.7,0,13.2-10.9,7.1-17.1    c-15.6-15.6-31.3-31.3-46.9-46.9c-24.9-24.9-49.9-49.9-74.8-74.8c-5.8-5.8-11.5-11.5-17.3-17.3c0,4.7,0,9.4,0,14.1    c19.9-19.9,39.7-39.7,59.6-59.6c-4.7,0-9.4,0-14.1,0c27.3,27.2,54.5,54.5,81.8,81.7c43.1,43.1,86.2,86.2,129.3,129.3    c9.9,9.9,19.7,19.7,29.6,29.6c9.1,9.1,23.3-5,14.1-14.1c-27.3-27.2-54.5-54.5-81.8-81.7c-43.1-43.1-86.2-86.2-129.3-129.3    c-9.9-9.9-19.7-19.7-29.6-29.6c-3.8-3.8-10.3-3.8-14.1,0c-19.9,19.9-39.7,39.7-59.6,59.6c-3.8,3.8-3.8,10.3,0,14.1    c15.6,15.6,31.3,31.3,46.9,46.9c24.9,24.9,49.9,49.9,74.8,74.8c5.8,5.8,11.5,11.5,17.3,17.3c2.4-5.7,4.7-11.4,7.1-17.1    c-20.4,0-40.8,0-61.3,0c-46.7,0-93.4,0-140.1,0c-51.1,0-102.2,0-153.3,0c-33.6,0-67.1,0-100.7,0c-12,0-23.9,0-35.9,1.2    c-42.4,4.1-83.6,17.9-119.6,40.8C111.7,428.7,64.4,507.5,58.4,593.1c-5.2,74,21.6,147.9,72,202.2c49.4,53.3,119.7,85,192.3,86.5    c33.7,0.7,67.6,0.1,101.3,0.1c43.5,0,86.9,0,130.4,0c2.7,0,5.3,0,8,0c5.4,0,10-4.6,10-10c0-28.1,0-56.2,0-84.3c0-5.4-4.6-10-10-10    c-27,0-53.9,0-80.9,0c-42.9,0-85.7,0-128.6,0c-9.6,0-19.1,0-28.7,0c-27.7-0.1-55-6.8-79.3-20.1c-54.4-29.7-88.7-88.2-87.3-150.3    c1.7-72.8,53.2-137.7,123.4-156.5c24.6-6.6,49.6-5.6,74.8-5.6c35.3,0,70.5,0,105.8,0c45.7,0,91.3,0,137,0c41.5,0,83.1,0,124.6,0    c22.8,0,45.6,0,68.4,0c1.1,0,2.1,0,3.2,0c-2.4-5.7-4.7-11.4-7.1-17.1c-15.6,15.6-31.3,31.2-46.9,46.9    c-24.9,24.9-49.9,49.9-74.8,74.8c-5.8,5.8-11.5,11.5-17.3,17.3c-3.8,3.8-3.8,10.3,0,14.1c19.9,19.9,39.7,39.7,59.6,59.6    c3.8,3.8,10.3,3.8,14.1,0c27.3-27.3,54.5-54.5,81.8-81.8c43.1-43.1,86.2-86.2,129.3-129.3c9.9-9.9,19.7-19.7,29.6-29.6    C972.4,390.8,958.3,376.6,949.1,385.8z"></path></g></g></svg>