<svg height='100px' width='100px'  fill="#1A1A1A" xmlns="http://www.w3.org/2000/svg" xmlns:xlink="http://www.w3.org/1999/xlink" viewBox="0 0 24 24" version="1.1" x="0px" y="0px"><title>back</title><desc>Created with Sketch.</desc><g stroke="none" stroke-width="1" fill="none" fill-rule="evenodd"><g fill="#1A1A1A" fill-rule="nonzero"><path d="M7.53492424,7 L14.5,7 C17.5375661,7 20,9.46243388 20,12.5 C20,15.5375661 17.5375661,18 14.5,18 L10.9973145,18 C10.4450297,18 9.99731445,17.5522847 9.99731445,17 C9.99731445,16.4477153 10.4450297,16 10.9973145,16 L14.5,16 C16.4329966,16 18,14.4329966 18,12.5 C18,10.5670034 16.4329966,9 14.5,9 L7.53492424,9 L9.79246212,11.2575379 C10.2025126,11.6675884 10.2025126,12.3324116 9.79246212,12.7424621 C9.38241161,13.1525126 8.71758839,13.1525126 8.30753788,12.7424621 L4.30753788,8.74246212 C3.89748737,8.33241161 3.89748737,7.66758839 4.30753788,7.25753788 L8.30753788,3.25753788 C8.71758839,2.84748737 9.38241161,2.84748737 9.79246212,3.25753788 C10.2025126,3.66758839 10.2025126,4.33241161 9.79246212,4.74246212 L7.53492424,7 Z"></path></g></g></svg>