<svg height='100px' width='100px'  fill="#1A1A1A" xmlns="http://www.w3.org/2000/svg" xmlns:xlink="http://www.w3.org/1999/xlink" version="1.1" x="0px" y="0px" viewBox="0 0 100 100" enable-background="new 0 0 100 100" xml:space="preserve"><path d="M18.6,50c0-1.4,1.1-2.5,2.5-2.5h10.3h5.3h10.2h4.4h11.1c1.4,0,2.5,1.1,2.5,2.5c0,1.4-1.1,2.5-2.5,2.5H47.1v0H36.6v0H21.1  C19.8,52.5,18.6,51.4,18.6,50z M18.6,40c0,1.4,1.1,2.5,2.5,2.5h10.3h6.3h8.1h5.5h11.1c1.4,0,2.5-1.1,2.5-2.5c0-1.4-1.1-2.5-2.5-2.5  H43.8v0h-3.9v0H21.1C19.8,37.5,18.6,38.6,18.6,40z M52.5,62.5c1-1.8,2.2-3.5,3.6-5h-9.8v0h-9v0H21.1c-1.4,0-2.5,1.1-2.5,2.5v0  c0,1.4,1.1,2.5,2.5,2.5h10.3H39h5.6h6.8H52.5z M21.1,72.5H37h9.7h3c0.1-1.7,0.4-3.4,0.8-5h-8.5h-0.3H21.1c-1.4,0-2.5,1.1-2.5,2.5  C18.6,71.4,19.8,72.5,21.1,72.5z M20.9,82.5h30.2c-0.6-1.6-1.1-3.3-1.3-5H20.9c-1.4,0-2.5,1.1-2.5,2.5  C18.4,81.4,19.5,82.5,20.9,82.5z M30.8,7.1c-0.6,0-1.2,0.1-1.8,0.3c-0.6,0.2-1.1,0.6-1.5,1L9.3,25.9c-0.5,0.4-0.8,1-1.1,1.6  C8,28,7.9,28.7,7.9,29.3v53c0,5.9,4.7,10.6,10.6,10.6h40.4c-1.8-1.4-3.5-3.1-4.8-5H18.5c-3.1,0-5.6-2.5-5.6-5.6V30.8h8.9  c5.8,0,10.6-4.8,10.6-10.6v-8.1h33.2c3.1,0,5.6,2.5,5.6,5.6v5.7v26.7c0.8-0.1,1.6-0.1,2.4-0.1c0.9,0,1.7,0,2.6,0.1V25.1v-1.7v-5.7  c0-5.9-4.7-10.6-10.6-10.6H30.8z M73.5,55.4c10.3,0,18.6,8.3,18.6,18.6s-8.3,18.6-18.6,18.6S54.9,84.2,54.9,74S63.3,55.4,73.5,55.4z   M73.5,62.4c-1.4,0-2.5,1.1-2.5,2.5v6.6h-6.6c-1.4,0-2.5,1.1-2.5,2.5s1.1,2.5,2.5,2.5H71v6.6c0,1.4,1.1,2.5,2.5,2.5s2.5-1.1,2.5-2.5  v-6.6h6.6c1.4,0,2.5-1.1,2.5-2.5s-1.1-2.5-2.5-2.5H76v-6.6C76,63.5,74.9,62.4,73.5,62.4z M41.4,32.5h1.9h15.7h2.4h1.2  c1.4,0,2.5-1.1,2.5-2.5s-1.1-2.5-2.5-2.5h-1.2h-7.9h-4.5h-7.5h-1.6c-1.4,0-2.5,1.1-2.5,2.5s1.1,2.5,2.5,2.5H41.4z"></path></svg>