<svg height='100px' width='100px'  fill="#1A1A1A" xmlns:dc="http://purl.org/dc/elements/1.1/" xmlns:cc="http://creativecommons.org/ns#" xmlns:rdf="http://www.w3.org/1999/02/22-rdf-syntax-ns#" xmlns:svg="http://www.w3.org/2000/svg" xmlns="http://www.w3.org/2000/svg" xmlns:sodipodi="http://sodipodi.sourceforge.net/DTD/sodipodi-0.dtd" xmlns:inkscape="http://www.inkscape.org/namespaces/inkscape" version="1.1" xml:space="preserve" viewBox="0 0 32 32" x="0px" y="0px"><g><path style="color:#000000;font-style:normal;font-variant:normal;font-weight:normal;font-stretch:normal;font-size:medium;line-height:normal;font-family:sans-serif;font-variant-ligatures:normal;font-variant-position:normal;font-variant-caps:normal;font-variant-numeric:normal;font-variant-alternates:normal;font-feature-settings:normal;text-indent:0;text-align:start;text-decoration:none;text-decoration-line:none;text-decoration-style:solid;text-decoration-color:#000000;letter-spacing:normal;word-spacing:normal;text-transform:none;writing-mode:lr-tb;direction:ltr;text-orientation:mixed;dominant-baseline:auto;baseline-shift:baseline;text-anchor:start;white-space:normal;shape-padding:0;clip-rule:nonzero;display:inline;overflow:visible;visibility:visible;opacity:1;isolation:auto;mix-blend-mode:normal;color-interpolation:sRGB;color-interpolation-filters:linearRGB;solid-color:#000000;solid-opacity:1;vector-effect:none;fill:#1A1A1A;fill-opacity:1;fill-rule:nonzero;stroke:none;stroke-width:2;stroke-linecap:round;stroke-linejoin:round;stroke-miterlimit:4;stroke-dasharray:none;stroke-dashoffset:0;stroke-opacity:1;paint-order:normal;color-rendering:auto;image-rendering:auto;shape-rendering:auto;text-rendering:auto;enable-background:accumulate" d="M 16,1.9999999 C 8.2799,2.0000099 2,8.2798599 2,16 2,23.72014 8.2799,30 16,30 23.7202,30 30,23.72014 30,16 30,8.2798599 23.7202,2.0000099 16,1.9999999 Z m -2.9922,6 c 0.5573,0.009 1.0022,0.46211 0.9922,1.01367 V 12 h 4.002 V 9.0136699 c -0.01,-0.56381 0.4525,-1.02267 1.0097,-1.01367 0.5572,0.009 0.9983,0.46211 0.9883,1.01367 V 12 h 2.9863 c 0.5639,-0.008 1.0237,0.45055 1.0137,1.00781 -0.01,0.55727 -0.462,0.99824 -1.0137,0.99024 H 20 v 4.0039 h 2.9863 C 23.5502,17.99395 24.01,18.45446 24,19.01172 23.99,19.56898 23.538,20.008 22.9863,20 H 20 v 2.98633 c 0.019,1.35243 -2.017,1.35243 -1.998,0 V 20 H 14 v 2.98633 c 0.019,1.35243 -2.017,1.35243 -1.998,0 V 20 H 9.0137 c -1.3524,0.0191 -1.3524,-2.01715 0,-1.99805 h 2.9883 v -4.0039 H 9.0137 C 7.6613,14.01715 7.6613,11.9809 9.0137,12 H 12.002 V 9.0136699 c -0.01,-0.56381 0.4486,-1.02267 1.0058,-1.01367 z M 14,13.99805 v 4.0039 h 4.002 v -4.0039 z"></path></g></svg>