<svg height='100px' width='100px'  fill="#1A1A1A" xmlns="http://www.w3.org/2000/svg" xmlns:xlink="http://www.w3.org/1999/xlink" version="1.1" x="0px" y="0px" viewBox="0 0 90 90" enable-background="new 0 0 90 90" xml:space="preserve"><path d="M45,57.3c-1.1,0-2.1-0.2-3-0.7h-8.3c0.5,0.9,1.2,1.8,1.9,2.6h18.8c0.8-0.8,1.4-1.7,1.9-2.6H48C47.1,57,46.1,57.3,45,57.3z"></path><path d="M51,54h6.5c0.3-0.8,0.4-1.7,0.5-2.6h-6C51.9,52.4,51.5,53.2,51,54z"></path><path d="M52,48.8h6c-0.1-0.9-0.3-1.7-0.5-2.6H51C51.5,47,51.9,47.9,52,48.8z"></path><path d="M39,46.2h-6.5c-0.3,0.8-0.4,1.7-0.5,2.6h6C38.1,47.9,38.5,47,39,46.2z"></path><path d="M39.1,38.5h11.8C47.2,36.6,42.8,36.6,39.1,38.5z"></path><path d="M50.9,61.8l-11.8,0C42.8,63.7,47.2,63.7,50.9,61.8z"></path><path d="M55.5,34.7l5.2-3.9C56.3,29.1,51,28,45,28C21,28,9.8,45.4,7.9,48.6c7.2-7,19.3-14.9,37.1-14.9  C48.8,33.7,52.2,34.1,55.5,34.7z"></path><path d="M64.9,32.7l-4.4,3.2c9.6,2.8,16.7,7.9,21.6,12.7C80.9,46.5,75.5,38.1,64.9,32.7z"></path><path d="M17.7,62.8l2.8-2c-5.2-2.7-9.4-6-12.6-9.1C8.8,53.2,11.9,58.1,17.7,62.8z"></path><path d="M24.6,62.6l-3.5,2.6c5.9,3.8,13.7,7,23.9,7c24,0,35.2-17.3,37.1-20.6c-7.2,7-19.3,14.9-37.1,14.9  C37.1,66.5,30.3,65,24.6,62.6z"></path><path d="M47.7,45.5l-8,5.9c0.6,2.4,2.7,4.2,5.3,4.2c3,0,5.4-2.4,5.4-5.4C50.4,48.1,49.3,46.4,47.7,45.5z"></path><path d="M44.3,43l2.6-2H35.6c-0.8,0.8-1.4,1.7-1.9,2.6H42C42.7,43.3,43.5,43.1,44.3,43z"></path><path d="M53.7,41.1l-3.5,2.6h6.2c-0.5-0.9-1.2-1.8-1.9-2.6H53.7z"></path><path d="M33,51.4h-1c0,0.2,0.1,0.4,0.1,0.7L33,51.4z"></path><path d="M36.2,54H39c-0.3-0.5-0.6-1-0.7-1.5L36.2,54z"></path><rect x="44" y="-4.5" transform="matrix(0.5957 0.8032 -0.8032 0.5957 54.3382 -17.9508)" width="2" height="99"></rect></svg>