<svg height='100px' width='100px'  fill="#1A1A1A" xmlns="http://www.w3.org/2000/svg" xmlns:xlink="http://www.w3.org/1999/xlink" version="1.1" x="0px" y="0px" viewBox="0 0 66 66" style="enable-background:new 0 0 66 66;" xml:space="preserve"><g><path d="M64.7,48.9c-4.7-4.4-10.1-8.6-17.3-8.6c-9.5,0-17,8.3-17.3,8.7c-0.3,0.4-0.3,1,0,1.3c0.3,0.4,7.8,8.7,17.3,8.7   c9.2,0,15.4-7.2,17.2-8.6C65.1,50,65.1,49.3,64.7,48.9z M47.4,55.4c-3.2,0-5.7-2.6-5.7-5.8c0-3.2,2.6-5.8,5.7-5.8s5.8,2.6,5.8,5.8   C53.2,52.8,50.6,55.4,47.4,55.4z"></path><path d="M47.4,45.8c-2.1,0-3.7,1.7-3.7,3.8s1.7,3.8,3.7,3.8c2.1,0,3.8-1.7,3.8-3.8S49.5,45.8,47.4,45.8z"></path><polygon points="34.5,2.7 34.5,16.1 47.8,16.1  "></polygon><path d="M28.6,51.6c-1-1.1-1-2.8,0-4c0.3-0.4,8.4-9.4,18.8-9.4c0.3,0,0.7,0,1,0V18.1H33.5c-0.6,0-1-0.5-1-1v-15H3.6   C2.2,2.1,1,3.2,1,4.6v56.7c0,1.4,1.2,2.5,2.6,2.5h42.3c1.4,0,2.5-1.1,2.5-2.5v-0.4c-0.3,0-0.7,0-1,0C37,61,28.9,52,28.6,51.6z    M9.2,9h15.5c0.5,0,1,0.5,1,1s-0.5,1-1,1H9.2c-0.6,0-1-0.5-1-1S8.7,9,9.2,9z M9.2,18.2h17.8c0.6,0,1,0.5,1,1s-0.4,1-1,1H9.2   c-0.6,0-1-0.5-1-1S8.7,18.2,9.2,18.2z M9.2,27.4h31c0.5,0,1,0.4,1,1c0,0.5-0.5,1-1,1h-31c-0.6,0-1-0.5-1-1   C8.2,27.9,8.7,27.4,9.2,27.4z M9.2,36.6h31c0.5,0,1,0.5,1,1s-0.5,1-1,1h-31c-0.6,0-1-0.5-1-1S8.7,36.6,9.2,36.6z M24.6,57H9.2   c-0.6,0-1-0.4-1-1c0-0.5,0.4-1,1-1h15.4c0.6,0,1,0.5,1,1C25.6,56.5,25.2,57,24.6,57z M24.6,47.8H9.2c-0.6,0-1-0.5-1-1s0.4-1,1-1   h15.4c0.6,0,1,0.5,1,1S25.2,47.8,24.6,47.8z"></path></g></svg>