<svg height='100px' width='100px'  fill="#1A1A1A" xmlns="http://www.w3.org/2000/svg" xmlns:xlink="http://www.w3.org/1999/xlink" version="1.1" x="0px" y="0px" viewBox="0 0 90 90" enable-background="new 0 0 90 90" xml:space="preserve"><path d="M82.1,48.6C80.2,45.4,69,28,45,28C21,28,9.8,45.4,7.9,48.6c7.2-7,19.3-14.9,37.1-14.9S74.9,41.6,82.1,48.6z"></path><path d="M7.9,51.7C9.8,54.9,21,72.2,45,72.2c24,0,35.2-17.3,37.1-20.6c-7.2,7-19.3,14.9-37.1,14.9S15.1,58.7,7.9,51.7z"></path><path d="M45,57.3c-1.1,0-2.1-0.2-3-0.7h-8.3c0.5,0.9,1.2,1.8,1.9,2.6h18.8c0.8-0.8,1.4-1.7,1.9-2.6H48C47.1,57,46.1,57.3,45,57.3z"></path><path d="M45,43c1.1,0,2.1,0.2,3,0.7h8.3c-0.5-0.9-1.2-1.8-1.9-2.6H35.6c-0.8,0.8-1.4,1.7-1.9,2.6H42C42.9,43.2,43.9,43,45,43z"></path><path d="M38,51.4h-6c0.1,0.9,0.3,1.7,0.5,2.6H39C38.5,53.2,38.1,52.4,38,51.4z"></path><path d="M51,54h6.5c0.3-0.8,0.4-1.7,0.5-2.6h-6C51.9,52.4,51.5,53.2,51,54z"></path><path d="M52,48.8h6c-0.1-0.9-0.3-1.7-0.5-2.6H51C51.5,47,51.9,47.9,52,48.8z"></path><path d="M39,46.2h-6.5c-0.3,0.8-0.4,1.7-0.5,2.6h6C38.1,47.9,38.5,47,39,46.2z"></path><path d="M39.1,38.5h11.8C47.2,36.6,42.8,36.6,39.1,38.5z"></path><path d="M50.9,61.8l-11.8,0C42.8,63.7,47.2,63.7,50.9,61.8z"></path><circle cx="45" cy="50.1" r="5.4"></circle></svg>